<svg width="36" height="36" viewBox="0 0 36 36" fill="none" xmlns="http://www.w3.org/2000/svg">
<circle cx="18" cy="18" r="18" fill="#4B4B4B"/>
<path d="M25.9817 14.1281C25.443 14.3675 24.8743 14.5172 24.2757 14.607C24.8743 14.2478 25.3532 13.6792 25.5627 12.9908C24.994 13.32 24.3655 13.5594 23.6771 13.7091C23.1383 13.1404 22.3602 12.7812 21.5221 12.7812C19.9059 12.7812 18.589 14.0982 18.589 15.7144C18.589 15.9538 18.6189 16.1634 18.6788 16.3729C16.2544 16.2531 14.0695 15.0859 12.6029 13.2901C12.3635 13.739 12.2138 14.2179 12.2138 14.7566C12.2138 15.7743 12.7227 16.6722 13.5308 17.2109C13.0519 17.181 12.6029 17.0613 12.1839 16.8518V16.8817C12.1839 18.3183 13.2015 19.5155 14.5484 19.7849C14.3089 19.8448 14.0396 19.8747 13.7702 19.8747C13.5906 19.8747 13.3811 19.8448 13.2015 19.8148C13.5906 20.9821 14.6681 21.8501 15.9551 21.8501C14.9375 22.6283 13.6804 23.1072 12.3036 23.1072C12.0642 23.1072 11.8247 23.1072 11.6152 23.0772C12.9322 23.9153 14.4586 24.3942 16.1347 24.3942C21.552 24.3942 24.5151 19.9046 24.5151 16.0137C24.5151 15.894 24.5151 15.7443 24.5151 15.6246C25.0838 15.2355 25.5926 14.7267 25.9817 14.1281Z" fill="white"/>
</svg>
