<svg width="36" height="36" viewBox="0 0 36 36" fill="none" xmlns="http://www.w3.org/2000/svg">
<circle cx="18" cy="18" r="18" fill="#4B4B4B"/>
<path d="M18.0012 10.8604C20.3267 10.8604 20.6021 10.8691 21.5207 10.911C22.0731 10.9178 22.6202 11.0192 23.1382 11.2109C23.5139 11.3558 23.8551 11.5777 24.1398 11.8624C24.4246 12.1472 24.6465 12.4884 24.7914 12.8641C24.9831 13.3821 25.0845 13.9292 25.0913 14.4816C25.1327 15.4002 25.1419 15.6756 25.1419 18.0011C25.1419 20.3266 25.1332 20.602 25.0913 21.5206C25.0845 22.073 24.9831 22.6201 24.7914 23.1382C24.6465 23.5139 24.4246 23.855 24.1398 24.1398C23.8551 24.4245 23.5139 24.6464 23.1382 24.7913C22.6202 24.983 22.0731 25.0844 21.5207 25.0912C20.6025 25.1327 20.3271 25.1418 18.0012 25.1418C15.6753 25.1418 15.3999 25.1331 14.4816 25.0912C13.9293 25.0844 13.3822 24.983 12.8641 24.7913C12.4884 24.6464 12.1472 24.4245 11.8625 24.1398C11.5778 23.855 11.3558 23.5139 11.211 23.1382C11.0193 22.6201 10.9178 22.073 10.9111 21.5206C10.8696 20.602 10.8605 20.3266 10.8605 18.0011C10.8605 15.6756 10.8692 15.4002 10.9111 14.4816C10.9178 13.9292 11.0193 13.3821 11.211 12.8641C11.3558 12.4884 11.5778 12.1472 11.8625 11.8624C12.1472 11.5777 12.4884 11.3558 12.8641 11.2109C13.3822 11.0192 13.9293 10.9178 14.4816 10.911C15.4003 10.8695 15.6757 10.8604 18.0012 10.8604ZM18.0012 9.29102C15.6371 9.29102 15.3393 9.30097 14.4103 9.34327C13.6874 9.35765 12.9722 9.49452 12.2951 9.74807C11.7142 9.96691 11.1881 10.3099 10.7535 10.753C10.31 11.1878 9.96671 11.7142 9.74773 12.2954C9.49418 12.9726 9.35731 13.6878 9.34293 14.4106C9.30146 15.3388 9.2915 15.6366 9.2915 18.0007C9.2915 20.3647 9.30146 20.6625 9.34376 21.5916C9.35814 22.3145 9.49501 23.0297 9.74855 23.7068C9.9673 24.2879 10.3103 24.8143 10.7535 25.2492C11.1884 25.6924 11.7148 26.0354 12.2959 26.2541C12.973 26.5077 13.6883 26.6446 14.4111 26.6589C15.3402 26.7004 15.6367 26.7112 18.002 26.7112C20.3673 26.7112 20.6639 26.7012 21.5929 26.6589C22.3158 26.6446 23.031 26.5077 23.7081 26.2541C24.2865 26.0299 24.8117 25.6875 25.2502 25.2487C25.6887 24.8099 26.0308 24.2845 26.2546 23.7059C26.5082 23.0288 26.6451 22.3136 26.6594 21.5907C26.7009 20.6625 26.7109 20.3647 26.7109 18.0007C26.7109 15.6366 26.7009 15.3388 26.6586 14.4098C26.6442 13.6869 26.5073 12.9717 26.2538 12.2946C26.0351 11.7135 25.6921 11.1871 25.2489 10.7522C24.814 10.3089 24.2876 9.96598 23.7064 9.74724C23.0293 9.49369 22.3141 9.35682 21.5912 9.34244C20.663 9.30097 20.3652 9.29102 18.0012 9.29102Z" fill="white"/>
<path d="M18.0014 13.5312C17.1168 13.5312 16.2521 13.7936 15.5166 14.285C14.7811 14.7765 14.2078 15.475 13.8693 16.2923C13.5307 17.1095 13.4422 18.0088 13.6148 18.8764C13.7873 19.744 14.2133 20.541 14.8388 21.1665C15.4643 21.792 16.2613 22.218 17.1289 22.3906C17.9965 22.5631 18.8958 22.4746 19.713 22.136C20.5303 21.7975 21.2288 21.2243 21.7203 20.4887C22.2117 19.7532 22.4741 18.8885 22.4741 18.0039C22.4741 16.8177 22.0028 15.68 21.1641 14.8413C20.3253 14.0025 19.1877 13.5312 18.0014 13.5312ZM18.0014 20.9071C17.4272 20.9071 16.8659 20.7368 16.3885 20.4178C15.9111 20.0988 15.5389 19.6454 15.3192 19.1149C15.0995 18.5844 15.042 18.0007 15.154 17.4375C15.266 16.8743 15.5425 16.357 15.9485 15.951C16.3546 15.545 16.8719 15.2685 17.435 15.1564C17.9982 15.0444 18.582 15.1019 19.1125 15.3216C19.6429 15.5414 20.0964 15.9135 20.4154 16.3909C20.7344 16.8684 20.9047 17.4297 20.9047 18.0039C20.9047 18.7739 20.5988 19.5123 20.0543 20.0568C19.5099 20.6012 18.7714 20.9071 18.0014 20.9071Z" fill="white"/>
<path d="M22.6506 14.395C23.2279 14.395 23.6958 13.9271 23.6958 13.3498C23.6958 12.7726 23.2279 12.3047 22.6506 12.3047C22.0734 12.3047 21.6055 12.7726 21.6055 13.3498C21.6055 13.9271 22.0734 14.395 22.6506 14.395Z" fill="white"/>
</svg>
