<svg width="19" height="19" viewBox="0 0 19 19" fill="none" xmlns="http://www.w3.org/2000/svg">
<path d="M18.8705 5.31135L16.5 3C16.3273 2.82726 16.1727 2.82726 16 3C15.8273 3.17274 15.8273 3.32726 16 3.5L17.1864 4.83635C16.7546 5.05226 16.4091 5.52726 16.4091 6.04545C16.4091 6.77955 16.9705 7.3409 17.7046 7.3409C17.8773 7.3409 18.0068 7.29771 18.1364 7.25455V15.1136C18.1364 15.8477 17.575 16.0468 16.8409 16.0468C16.1068 16.0468 15.5455 15.8477 15.5455 15.1136V8.20455C15.5455 6.99545 14.2091 6.04545 13 6.04545H12.5227V2.1591C12.5228 0.95 11.5728 0 10.3637 0H3.45459C2.24549 0 1.29549 0.95 1.29549 2.1591V16.4091C0.561392 16.4091 3.8147e-05 16.9705 3.8147e-05 17.7045C3.8147e-05 18.4386 0.561392 19 1.29549 19H12.5227C13.2568 19 13.8182 18.4386 13.8182 17.7045C13.8182 16.9705 13.2568 16.4091 12.5227 16.4091L2.66771 16.5C2.40862 16.5 2.27381 16.5818 2.27381 16.8409C2.27381 17.1 2.40865 17.2727 2.66771 17.2727H12.5228C12.7819 17.2727 12.9546 17.4455 12.9546 17.7045C12.9546 17.9636 12.7818 18.1363 12.5228 18.1363H1.29549C1.03639 18.1363 0.863685 17.9636 0.863685 17.7045C0.863685 17.4455 1.03643 17.2727 1.29549 17.2727H1.72729C1.98639 17.2727 2.1591 17.1 2.1591 16.8409V2.1591C2.1591 1.425 2.72045 0.863647 3.45455 0.863647H10.3636C11.0977 0.863647 11.6591 1.425 11.6591 2.1591L11.5 15.5C11.5 15.7591 11.741 16 12 16C12.2591 16 12.5 15.7591 12.5 15.5L12.5227 6.9091H13C13.7341 6.9091 14.6818 7.47045 14.6818 8.20455V15.1136C14.6818 16.3227 15.6318 16.8088 16.8409 16.8088C18.05 16.8088 19 16.3227 19 15.1136V5.61365C19 5.4841 18.9568 5.39774 18.8705 5.31135ZM17.7046 6.47726C17.4455 6.47726 17 6.25906 17 6C17 5.7409 17.4455 5.61365 17.7046 5.61365C17.9636 5.61365 18.1364 5.78639 18.1364 6.04545C18.1364 6.30455 17.9637 6.47726 17.7046 6.47726Z" fill="black"/>
<path d="M7.4 5.2192C7.24999 4.92693 6.75001 4.92693 6.6 5.2192C6.44999 5.51147 5 8.08349 5 9.54487C5 10.8894 5.89999 12 7 12C8.10001 12 9 10.8894 9 9.54487C9 8.08349 7.59998 5.51147 7.4 5.2192ZM7 10.8309C6.44999 10.8309 5.99998 10.2464 5.99998 9.54487C5.99998 8.90187 6.49997 7.67433 7 6.68058C7.49999 7.67433 8.00002 8.90187 8.00002 9.54487C8.00002 10.2463 7.55001 10.8309 7 10.8309Z" fill="#14C5FD"/>
</svg>
