<svg width="21" height="19" viewBox="0 0 21 19" fill="none" xmlns="http://www.w3.org/2000/svg">
<path d="M12.677 4.7888C12.6659 4.26829 12.7657 3.75138 12.9697 3.27233C13.1736 2.79328 13.4772 2.36303 13.8601 2.01013C14.2502 1.64056 14.7094 1.35146 15.2114 1.15935C15.7134 0.967236 16.2483 0.875879 16.7856 0.890507C17.3214 0.885615 17.8518 0.998248 18.3394 1.22046C18.8269 1.44268 19.2598 1.76907 19.6074 2.17663C20.3896 3.05336 20.8054 4.19659 20.7693 5.37069C20.7458 6.45359 20.5207 7.52265 20.1055 8.52313C19.6324 9.71753 19.0565 10.8686 18.3843 11.9635C17.6537 13.1613 16.8569 14.3176 15.9977 15.4269C15.1121 16.5743 14.2128 17.6458 13.3 18.6413L12.1798 17.6874C13.3642 16.336 14.4008 14.862 15.2719 13.2904C16.0473 11.9174 16.5609 10.4124 16.7865 8.85188C15.7052 8.79209 14.6781 8.35984 13.8797 7.62862C13.4852 7.27072 13.1733 6.83136 12.9656 6.34099C12.758 5.85063 12.6595 5.32099 12.677 4.7888ZM0.807632 4.7888C0.795838 4.27015 0.893166 3.7548 1.09331 3.27614C1.29346 2.79747 1.59197 2.36616 1.9695 2.01013C2.35424 1.63999 2.80893 1.3502 3.307 1.15767C3.80507 0.965141 4.33653 0.873739 4.87033 0.888809C5.40616 0.883917 5.93654 0.99655 6.42409 1.21877C6.91164 1.44098 7.34449 1.76737 7.69213 2.17493C8.4743 3.05167 8.89016 4.1949 8.85399 5.36899C8.83054 6.45189 8.60543 7.52095 8.19019 8.52143C7.71697 9.71673 7.14081 10.8687 6.46822 11.9644C5.73753 13.1622 4.94076 14.3184 4.08159 15.4277C3.19596 16.5751 2.29672 17.6466 1.38389 18.6422L0.263672 17.6882C1.44984 16.3336 2.49286 14.8601 3.37614 13.2913C4.1638 11.9255 4.67173 10.4167 4.87033 8.85273C3.80338 8.78678 2.79192 8.35468 2.00689 7.62947C1.61293 7.27116 1.30162 6.83152 1.09454 6.34102C0.887459 5.85051 0.789563 5.32087 0.807632 4.7888Z" fill="#858181"/>
</svg>
